PathFileType	4	(X/Y/Z)	C:/Users/opensim2020/Desktop/walking_exp_matlab/subject03_walking08_straight_02.trc	
DataRate	CameraRate	NumFrames	NumMarkers	Units	OrigDataRate	OrigDataStartFrame	OrigNumFrames	
100.00	100.00	4	51	mm	100.00	1631	314	
Frame#	Time	LFHD			RFHD			LBHD			RBHD			C7			T10			CLAV			STRN			RBAK			LSHO			LUPA			LELB			LFRM			LWRA			LWRB			LFIN			RSHO			RUPA			RELB			RFRM			RWRA			RWRB			RFIN			LASI			RASI			LPSI			RPSI			LTHI			LKNE			LTIB			LANK			LHEE			LTOE			RTHI			RKNE			RTIB			RANK			RHEE			RTOE			*39			*40			*41			*42			*43			*44			*45			*46			*47			*48			*49			*50			
		X1	Y1	Z1	X2	Y2	Z2	X3	Y3	Z3	X4	Y4	Z4	X5	Y5	Z5	X6	Y6	Z6	X7	Y7	Z7	X8	Y8	Z8	X9	Y9	Z9	X10	Y10	Z10	X11	Y11	Z11	X12	Y12	Z12	X13	Y13	Z13	X14	Y14	Z14	X15	Y15	Z15	X16	Y16	Z16	X17	Y17	Z17	X18	Y18	Z18	X19	Y19	Z19	X20	Y20	Z20	X21	Y21	Z21	X22	Y22	Z22	X23	Y23	Z23	X24	Y24	Z24	X25	Y25	Z25	X26	Y26	Z26	X27	Y27	Z27	X28	Y28	Z28	X29	Y29	Z29	X30	Y30	Z30	X31	Y31	Z31	X32	Y32	Z32	X33	Y33	Z33	X34	Y34	Z34	X35	Y35	Z35	X36	Y36	Z36	X37	Y37	Z37	X38	Y38	Z38	X39	Y39	Z39	X40	Y40	Z40	X41	Y41	Z41	X42	Y42	Z42	X43	Y43	Z43	X44	Y44	Z44	X45	Y45	Z45	X46	Y46	Z46	X47	Y47	Z47	X48	Y48	Z48	X49	Y49	Z49	X50	Y50	Z50	X51	Y51	Z51	

79	0.780	1524.82336	578.96027	1613.34570	1392.24841	581.29388	1618.90686	1521.74036	704.12042	1560.23328	1390.85229	701.23712	1565.84314	1458.59192	726.81744	1411.12341	1458.34729	773.31183	1099.87854	1463.90356	605.33417	1330.60217	1466.77698	572.12933	1163.69373	1353.74536	779.84155	1243.09497	1618.36621	657.72174	1366.45117	1684.41541	695.55786	1169.78259	1695.97961	703.60114	1046.47388	1695.41504	681.34503	918.40149	1664.60242	658.24463	802.22284	1710.31067	690.33563	805.01514	1700.57678	673.17035	722.69489	1303.52209	637.76691	1358.15540	1225.54443	592.72266	1145.15918	1214.44446	547.80182	1042.23608	1221.16284	485.41727	921.00439	1266.38037	429.85455	844.37445	1219.46387	450.18832	826.84467	1235.94568	402.15982	772.86328	1569.57581	601.56073	928.57922	1331.02600	613.68536	932.65234	1529.61145	766.47345	950.46320	1380.26257	771.42712	966.68188	1614.06165	600.45844	627.96893	1566.69641	536.21716	465.55167	1572.25098	521.30060	276.99680	1541.75562	461.76831	74.54738	1500.36743	487.04453	29.47611	1522.99500	306.47949	74.25145	1298.82776	711.40363	644.63477	1335.09509	733.95349	466.05893	1339.65747	829.37048	296.48135	1395.97302	912.69427	97.05160	1448.68823	960.89905	76.88062	1409.91309	779.94171	35.82372	1475.97461	666.68420	1669.17126																																	 
80	0.790	1525.61011	570.90125	1612.95618	1393.04785	573.43768	1618.55872	1522.55969	695.91467	1559.55054	1391.75671	693.22015	1565.20544	1459.90527	718.31787	1410.59937	1459.68396	764.46741	1099.19604	1464.70618	596.64197	1330.19116	1467.18860	563.27124	1163.26245	1355.20520	771.51050	1242.48462	1619.44849	648.49945	1365.77234	1684.95544	686.00305	1168.87134	1696.11414	694.12610	1045.54419	1695.17297	672.43549	917.32507	1664.28491	650.26788	801.17651	1709.85815	682.02423	803.95978	1699.78674	665.44232	721.51685	1304.44177	629.72723	1357.72754	1227.09155	585.33734	1144.31860	1216.31226	541.01483	1041.10852	1222.99353	479.26758	919.58374	1268.00757	423.62582	842.92389	1221.42737	444.46695	825.15198	1237.79297	396.42993	771.12177	1569.94861	592.20844	927.87115	1331.44934	605.25745	932.10925	1530.89172	757.06226	950.04846	1381.57983	762.69153	966.09314	1614.03699	591.51428	627.54248	1566.74841	528.01526	464.75504	1572.31226	515.00854	275.68134	1540.50427	456.55817	71.78551	1500.67773	484.12662	29.37119	1521.92188	302.51505	70.89555	1299.19446	704.51367	644.49268	1335.03845	727.77649	465.84744	1339.57874	825.38086	297.34900	1395.70337	911.48706	98.98795	1448.47302	959.83698	79.50427	1409.78857	779.75684	35.76792	1476.65515	658.63708	1668.48096																																	 
81	0.800	1526.18567	562.29694	1612.68164	1393.80762	565.65375	1618.30896	1523.09399	687.29761	1558.84485	1392.71021	685.22601	1564.69666	1461.39868	709.98273	1410.11121	1461.08130	755.37708	1098.51465	1465.59741	587.90930	1329.85413	1467.78076	554.20782	1163.00378	1356.74670	763.13574	1241.92517	1620.56580	639.12976	1365.19946	1685.64771	676.26245	1168.07495	1696.33704	684.38904	1044.63879	1694.99023	663.36139	916.35382	1663.70947	641.99030	800.09686	1709.51233	673.52545	802.99463	1699.07202	657.51971	720.45465	1305.46094	621.67596	1357.41650	1228.80579	577.91345	1143.57227	1218.23730	534.27655	1040.03796	1224.82043	473.26379	918.03741	1269.60278	418.12073	841.16510	1223.23792	439.24084	823.27771	1239.70703	391.27090	769.26245	1570.56726	582.38342	927.40881	1331.95105	596.59265	931.52258	1532.16309	747.53064	949.76715	1382.91772	753.76160	965.61176	1614.11475	582.12482	627.32343	1566.94775	519.98621	463.89688	1572.27832	509.46356	274.24551	1540.16187	454.10056	70.11830	1500.23523	482.98007	28.86638	1520.91174	300.29581	64.84465	1299.59985	697.26691	644.16333	1334.95325	721.22052	465.63306	1339.49243	821.10638	298.17001	1395.36365	910.15857	101.15305	1448.16882	958.78180	82.36564	1409.64343	779.52313	35.70563																																				 
82	0.810	1526.87646	554.08142	1612.42725	1394.62317	557.78680	1618.13306	1524.45959	679.39758	1558.49487	1393.68799	677.19513	1564.21692	1462.74878	701.34357	1409.55884	1462.63855	746.15302	1097.91113	1466.48694	579.15808	1329.56042	1468.37805	545.08673	1162.80591	1358.46619	754.77679	1241.51904	1621.70483	629.61469	1364.68420	1686.41858	666.34155	1167.32336	1696.31592	674.09271	1043.67529	1694.79700	653.96661	915.36865	1662.88745	633.32178	799.03546	1709.11792	664.66742	802.01691	1698.43420	649.34595	719.43744	1306.55933	613.66168	1357.17419	1230.63977	570.48608	1142.83667	1220.25183	527.56854	1038.94568	1226.46045	467.73730	916.33466	1270.99451	412.73871	839.25903	1224.91858	434.46396	821.24500	1241.10828	386.36826	766.91711	1571.05212	572.58539	927.08545	1332.43848	587.72766	930.90045	1533.54517	737.83936	949.76794	1384.18176	744.70056	965.10175	1614.31238	572.32898	627.55688	1567.15942	512.51007	463.13620	1571.45898	504.47311	273.12711	1539.36389	451.85416	69.05468	1499.35083	482.31827	29.70674	1519.92664	298.12216	55.88468	1300.07837	689.73389	643.78522	1334.97266	714.18896	465.14136	1339.43970	816.54181	299.03375	1394.90222	908.72888	103.27112	1447.77832	957.75055	85.59359	1409.52026	779.24170	35.65943	1478.66809	642.87732	1667.65234																																	 
